<?xml version="1.0" encoding="UTF-8"?>
<!DOCTYPE svg PUBLIC "-//W3C//DTD SVG 1.1//EN" "http://www.w3.org/Graphics/SVG/1.1/DTD/svg11.dtd">
<svg xmlns="http://www.w3.org/2000/svg" xmlns:xlink="http://www.w3.org/1999/xlink" version="1.1" width="922px" height="901px" viewBox="-0.5 -0.5 922 901" style="background-color: rgb(255, 255, 255);"><defs><clipPath id="mx-clip-460-300-30-30-0"><rect x="460" y="300" width="30" height="30"/></clipPath><clipPath id="mx-clip-496-300-144-30-0"><rect x="496" y="300" width="144" height="30"/></clipPath><clipPath id="mx-clip-496-330-144-30-0"><rect x="496" y="330" width="144" height="30"/></clipPath><clipPath id="mx-clip-496-360-144-30-0"><rect x="496" y="360" width="144" height="30"/></clipPath><clipPath id="mx-clip-496-390-144-30-0"><rect x="496" y="390" width="144" height="30"/></clipPath><clipPath id="mx-clip-496-420-144-30-0"><rect x="496" y="420" width="144" height="30"/></clipPath><clipPath id="mx-clip-496-450-144-30-0"><rect x="496" y="450" width="144" height="30"/></clipPath><clipPath id="mx-clip-496-480-144-30-0"><rect x="496" y="480" width="144" height="30"/></clipPath><clipPath id="mx-clip-741-540-30-30-0"><rect x="741" y="540" width="30" height="30"/></clipPath><clipPath id="mx-clip-777-540-144-30-0"><rect x="777" y="540" width="144" height="30"/></clipPath><clipPath id="mx-clip-777-570-144-30-0"><rect x="777" y="570" width="144" height="30"/></clipPath><clipPath id="mx-clip-777-600-144-30-0"><rect x="777" y="600" width="144" height="30"/></clipPath><clipPath id="mx-clip-777-630-144-30-0"><rect x="777" y="630" width="144" height="30"/></clipPath><clipPath id="mx-clip-777-660-144-30-0"><rect x="777" y="660" width="144" height="30"/></clipPath><clipPath id="mx-clip-777-690-144-30-0"><rect x="777" y="690" width="144" height="30"/></clipPath><clipPath id="mx-clip-777-720-144-30-0"><rect x="777" y="720" width="144" height="30"/></clipPath><clipPath id="mx-clip-777-750-144-30-0"><rect x="777" y="750" width="144" height="30"/></clipPath><clipPath id="mx-clip-777-780-144-30-0"><rect x="777" y="780" width="144" height="30"/></clipPath><clipPath id="mx-clip-740-300-30-30-0"><rect x="740" y="300" width="30" height="30"/></clipPath><clipPath id="mx-clip-776-300-144-30-0"><rect x="776" y="300" width="144" height="30"/></clipPath><clipPath id="mx-clip-740-330-30-30-0"><rect x="740" y="330" width="30" height="30"/></clipPath><clipPath id="mx-clip-776-330-144-30-0"><rect x="776" y="330" width="144" height="30"/></clipPath><clipPath id="mx-clip-740-360-30-30-0"><rect x="740" y="360" width="30" height="30"/></clipPath><clipPath id="mx-clip-776-360-144-30-0"><rect x="776" y="360" width="144" height="30"/></clipPath><clipPath id="mx-clip-776-390-144-30-0"><rect x="776" y="390" width="144" height="30"/></clipPath><clipPath id="mx-clip-776-420-144-30-0"><rect x="776" y="420" width="144" height="30"/></clipPath><clipPath id="mx-clip-776-450-144-30-0"><rect x="776" y="450" width="144" height="30"/></clipPath><clipPath id="mx-clip-460-620-30-30-0"><rect x="460" y="620" width="30" height="30"/></clipPath><clipPath id="mx-clip-496-620-144-30-0"><rect x="496" y="620" width="144" height="30"/></clipPath><clipPath id="mx-clip-460-650-30-30-0"><rect x="460" y="650" width="30" height="30"/></clipPath><clipPath id="mx-clip-496-650-144-30-0"><rect x="496" y="650" width="144" height="30"/></clipPath><clipPath id="mx-clip-460-680-30-30-0"><rect x="460" y="680" width="30" height="30"/></clipPath><clipPath id="mx-clip-496-680-144-30-0"><rect x="496" y="680" width="144" height="30"/></clipPath><clipPath id="mx-clip-460-710-30-30-0"><rect x="460" y="710" width="30" height="30"/></clipPath><clipPath id="mx-clip-496-710-144-30-0"><rect x="496" y="710" width="144" height="30"/></clipPath><clipPath id="mx-clip-496-740-144-30-0"><rect x="496" y="740" width="144" height="30"/></clipPath><clipPath id="mx-clip-496-770-144-30-0"><rect x="496" y="770" width="144" height="30"/></clipPath><clipPath id="mx-clip-496-800-144-30-0"><rect x="496" y="800" width="144" height="30"/></clipPath><clipPath id="mx-clip-496-830-144-30-0"><rect x="496" y="830" width="144" height="30"/></clipPath><clipPath id="mx-clip-496-860-144-30-0"><rect x="496" y="860" width="144" height="30"/></clipPath><clipPath id="mx-clip-0-380-30-30-0"><rect x="0" y="380" width="30" height="30"/></clipPath><clipPath id="mx-clip-36-380-144-30-0"><rect x="36" y="380" width="144" height="30"/></clipPath><clipPath id="mx-clip-36-410-144-30-0"><rect x="36" y="410" width="144" height="30"/></clipPath><clipPath id="mx-clip-36-440-144-30-0"><rect x="36" y="440" width="144" height="30"/></clipPath><clipPath id="mx-clip-36-470-144-30-0"><rect x="36" y="470" width="144" height="30"/></clipPath><clipPath id="mx-clip-36-500-144-30-0"><rect x="36" y="500" width="144" height="30"/></clipPath><clipPath id="mx-clip-460-30-30-30-0"><rect x="460" y="30" width="30" height="30"/></clipPath><clipPath id="mx-clip-496-30-144-30-0"><rect x="496" y="30" width="144" height="30"/></clipPath><clipPath id="mx-clip-460-60-30-30-0"><rect x="460" y="60" width="30" height="30"/></clipPath><clipPath id="mx-clip-496-60-144-30-0"><rect x="496" y="60" width="144" height="30"/></clipPath><clipPath id="mx-clip-496-90-144-30-0"><rect x="496" y="90" width="144" height="30"/></clipPath><clipPath id="mx-clip-496-120-144-30-0"><rect x="496" y="120" width="144" height="30"/></clipPath><clipPath id="mx-clip-496-150-144-30-0"><rect x="496" y="150" width="144" height="30"/></clipPath><clipPath id="mx-clip-496-180-144-30-0"><rect x="496" y="180" width="144" height="30"/></clipPath><clipPath id="mx-clip-496-210-144-30-0"><rect x="496" y="210" width="144" height="30"/></clipPath><clipPath id="mx-clip-0-620-30-30-0"><rect x="0" y="620" width="30" height="30"/></clipPath><clipPath id="mx-clip-36-620-144-30-0"><rect x="36" y="620" width="144" height="30"/></clipPath><clipPath id="mx-clip-0-650-30-30-0"><rect x="0" y="650" width="30" height="30"/></clipPath><clipPath id="mx-clip-36-650-144-30-0"><rect x="36" y="650" width="144" height="30"/></clipPath><clipPath id="mx-clip-0-680-30-30-0"><rect x="0" y="680" width="30" height="30"/></clipPath><clipPath id="mx-clip-36-680-144-30-0"><rect x="36" y="680" width="144" height="30"/></clipPath><clipPath id="mx-clip-230-620-30-30-0"><rect x="230" y="620" width="30" height="30"/></clipPath><clipPath id="mx-clip-266-620-144-30-0"><rect x="266" y="620" width="144" height="30"/></clipPath><clipPath id="mx-clip-266-650-144-30-0"><rect x="266" y="650" width="144" height="30"/></clipPath><clipPath id="mx-clip-266-680-144-30-0"><rect x="266" y="680" width="144" height="30"/></clipPath><clipPath id="mx-clip-266-710-144-30-0"><rect x="266" y="710" width="144" height="30"/></clipPath><clipPath id="mx-clip-266-740-144-30-0"><rect x="266" y="740" width="144" height="30"/></clipPath><clipPath id="mx-clip-266-770-144-30-0"><rect x="266" y="770" width="144" height="30"/></clipPath><clipPath id="mx-clip-240-380-30-30-0"><rect x="240" y="380" width="30" height="30"/></clipPath><clipPath id="mx-clip-276-380-144-30-0"><rect x="276" y="380" width="144" height="30"/></clipPath><clipPath id="mx-clip-240-410-30-30-0"><rect x="240" y="410" width="30" height="30"/></clipPath><clipPath id="mx-clip-276-410-144-30-0"><rect x="276" y="410" width="144" height="30"/></clipPath><clipPath id="mx-clip-240-440-30-30-0"><rect x="240" y="440" width="30" height="30"/></clipPath><clipPath id="mx-clip-276-440-144-30-0"><rect x="276" y="440" width="144" height="30"/></clipPath></defs><g><path d="M 460 300 L 460 270 L 640 270 L 640 300" fill="rgb(255, 255, 255)" stroke="rgb(0, 0, 0)" stroke-miterlimit="10" pointer-events="all"/><path d="M 460 300 L 460 520 L 640 520 L 640 300" fill="none" stroke="rgb(0, 0, 0)" stroke-miterlimit="10" pointer-events="none"/><path d="M 460 300 L 640 300" fill="none" stroke="rgb(0, 0, 0)" stroke-miterlimit="10" pointer-events="none"/><path d="M 490 300 L 490 330 L 490 360 L 490 390 L 490 420 L 490 450 L 490 480 L 490 510" fill="none" stroke="rgb(0, 0, 0)" stroke-miterlimit="10" pointer-events="none"/><g fill="rgb(0, 0, 0)" font-family="Helvetica" font-weight="bold" pointer-events="none" text-anchor="middle" font-size="12px"><text x="549.5" y="289.5">Zones</text></g><path d="M 460 300 M 640 300 M 640 330 L 460 330" fill="none" stroke="rgb(0, 0, 0)" stroke-linecap="square" stroke-miterlimit="10" pointer-events="none"/><path d="M 460 300 M 490 300 M 490 330 M 460 330" fill="none" stroke="rgb(0, 0, 0)" stroke-linecap="square" stroke-miterlimit="10" pointer-events="none"/><g fill="rgb(0, 0, 0)" font-family="Helvetica" font-weight="bold" pointer-events="none" clip-path="url(#mx-clip-460-300-30-30-0)" text-anchor="middle" font-size="12px"><text x="474.5" y="319.5">PK</text></g><path d="M 490 300 M 640 300 M 640 330 M 490 330" fill="none" stroke="rgb(0, 0, 0)" stroke-linecap="square" stroke-miterlimit="10" pointer-events="none"/><g fill="rgb(0, 0, 0)" font-family="Helvetica" font-weight="bold" text-decoration="underline" pointer-events="none" clip-path="url(#mx-clip-496-300-144-30-0)" font-size="12px"><text x="497.5" y="319.5">Id: uuid</text></g><path d="M 460 330 M 490 330 M 490 360 M 460 360" fill="none" stroke="rgb(0, 0, 0)" stroke-linecap="square" stroke-miterlimit="10" pointer-events="none"/><path d="M 490 330 M 640 330 M 640 360 M 490 360" fill="none" stroke="rgb(0, 0, 0)" stroke-linecap="square" stroke-miterlimit="10" pointer-events="none"/><g fill="rgb(0, 0, 0)" font-family="Helvetica" pointer-events="none" clip-path="url(#mx-clip-496-330-144-30-0)" font-size="12px"><text x="497.5" y="349.5">Name: varchar(255)</text></g><path d="M 460 360 M 490 360 M 490 390 M 460 390" fill="none" stroke="rgb(0, 0, 0)" stroke-linecap="square" stroke-miterlimit="10" pointer-events="none"/><path d="M 490 360 M 640 360 M 640 390 M 490 390" fill="none" stroke="rgb(0, 0, 0)" stroke-linecap="square" stroke-miterlimit="10" pointer-events="none"/><g fill="rgb(0, 0, 0)" font-family="Helvetica" pointer-events="none" clip-path="url(#mx-clip-496-360-144-30-0)" font-size="12px"><text x="497.5" y="379.5">Type: varchar(255)</text></g><path d="M 460 390 M 490 390 M 490 420 M 460 420" fill="none" stroke="rgb(0, 0, 0)" stroke-linecap="square" stroke-miterlimit="10" pointer-events="none"/><path d="M 490 390 M 640 390 M 640 420 M 490 420" fill="none" stroke="rgb(0, 0, 0)" stroke-linecap="square" stroke-miterlimit="10" pointer-events="none"/><g fill="rgb(0, 0, 0)" font-family="Helvetica" pointer-events="none" clip-path="url(#mx-clip-496-390-144-30-0)" font-size="12px"><text x="497.5" y="409.5">Size: numeric</text></g><path d="M 460 420 M 490 420 M 490 450 M 460 450" fill="none" stroke="rgb(0, 0, 0)" stroke-linecap="square" stroke-miterlimit="10" pointer-events="none"/><path d="M 490 420 M 640 420 M 640 450 M 490 450" fill="none" stroke="rgb(0, 0, 0)" stroke-linecap="square" stroke-miterlimit="10" pointer-events="none"/><g fill="rgb(0, 0, 0)" font-family="Helvetica" pointer-events="none" clip-path="url(#mx-clip-496-420-144-30-0)" font-size="12px"><text x="497.5" y="439.5">Rating: numeric</text></g><path d="M 460 450 M 490 450 M 490 480 M 460 480" fill="none" stroke="rgb(0, 0, 0)" stroke-linecap="square" stroke-miterlimit="10" pointer-events="none"/><path d="M 490 450 M 640 450 M 640 480 M 490 480" fill="none" stroke="rgb(0, 0, 0)" stroke-linecap="square" stroke-miterlimit="10" pointer-events="none"/><g fill="rgb(0, 0, 0)" font-family="Helvetica" pointer-events="none" clip-path="url(#mx-clip-496-450-144-30-0)" font-size="12px"><text x="497.5" y="469.5">Price: numeric</text></g><path d="M 460 480 M 490 480 M 490 510 M 460 510" fill="none" stroke="rgb(0, 0, 0)" stroke-linecap="square" stroke-miterlimit="10" pointer-events="none"/><path d="M 490 480 M 640 480 M 640 510 M 490 510" fill="none" stroke="rgb(0, 0, 0)" stroke-linecap="square" stroke-miterlimit="10" pointer-events="none"/><g fill="rgb(0, 0, 0)" font-family="Helvetica" pointer-events="none" clip-path="url(#mx-clip-496-480-144-30-0)" font-size="12px"><text x="497.5" y="499.5">Limit: integer</text></g><path d="M 741 540 L 741 510 L 921 510 L 921 540" fill="rgb(255, 255, 255)" stroke="rgb(0, 0, 0)" stroke-miterlimit="10" pointer-events="none"/><path d="M 741 540 L 741 820 L 921 820 L 921 540" fill="none" stroke="rgb(0, 0, 0)" stroke-miterlimit="10" pointer-events="none"/><path d="M 741 540 L 921 540" fill="none" stroke="rgb(0, 0, 0)" stroke-miterlimit="10" pointer-events="none"/><path d="M 771 540 L 771 570 L 771 600 L 771 630 L 771 660 L 771 690 L 771 720 L 771 750 L 771 780 L 771 810" fill="none" stroke="rgb(0, 0, 0)" stroke-miterlimit="10" pointer-events="none"/><g fill="rgb(0, 0, 0)" font-family="Helvetica" font-weight="bold" pointer-events="none" text-anchor="middle" font-size="12px"><text x="830.5" y="529.5">Users</text></g><path d="M 741 540 M 921 540 M 921 570 L 741 570" fill="none" stroke="rgb(0, 0, 0)" stroke-linecap="square" stroke-miterlimit="10" pointer-events="none"/><path d="M 741 540 M 771 540 M 771 570 M 741 570" fill="none" stroke="rgb(0, 0, 0)" stroke-linecap="square" stroke-miterlimit="10" pointer-events="none"/><g fill="rgb(0, 0, 0)" font-family="Helvetica" font-weight="bold" pointer-events="none" clip-path="url(#mx-clip-741-540-30-30-0)" text-anchor="middle" font-size="12px"><text x="755.5" y="559.5">PK</text></g><path d="M 771 540 M 921 540 M 921 570 M 771 570" fill="none" stroke="rgb(0, 0, 0)" stroke-linecap="square" stroke-miterlimit="10" pointer-events="none"/><g fill="rgb(0, 0, 0)" font-family="Helvetica" font-weight="bold" text-decoration="underline" pointer-events="none" clip-path="url(#mx-clip-777-540-144-30-0)" font-size="12px"><text x="778.5" y="559.5">Id: uuid</text></g><path d="M 741 570 M 771 570 M 771 600 M 741 600" fill="none" stroke="rgb(0, 0, 0)" stroke-linecap="square" stroke-miterlimit="10" pointer-events="none"/><path d="M 771 570 M 921 570 M 921 600 M 771 600" fill="none" stroke="rgb(0, 0, 0)" stroke-linecap="square" stroke-miterlimit="10" pointer-events="none"/><g fill="rgb(0, 0, 0)" font-family="Helvetica" pointer-events="none" clip-path="url(#mx-clip-777-570-144-30-0)" font-size="12px"><text x="778.5" y="589.5">LastName: varchar(64)</text></g><path d="M 741 600 M 771 600 M 771 630 M 741 630" fill="none" stroke="rgb(0, 0, 0)" stroke-linecap="square" stroke-miterlimit="10" pointer-events="none"/><path d="M 771 600 M 921 600 M 921 630 M 771 630" fill="none" stroke="rgb(0, 0, 0)" stroke-linecap="square" stroke-miterlimit="10" pointer-events="none"/><g fill="rgb(0, 0, 0)" font-family="Helvetica" pointer-events="none" clip-path="url(#mx-clip-777-600-144-30-0)" font-size="12px"><text x="778.5" y="619.5">FirstName: varchar(64)</text></g><path d="M 741 630 M 771 630 M 771 660 M 741 660" fill="none" stroke="rgb(0, 0, 0)" stroke-linecap="square" stroke-miterlimit="10" pointer-events="none"/><path d="M 771 630 M 921 630 M 921 660 M 771 660" fill="none" stroke="rgb(0, 0, 0)" stroke-linecap="square" stroke-miterlimit="10" pointer-events="none"/><g fill="rgb(0, 0, 0)" font-family="Helvetica" pointer-events="none" clip-path="url(#mx-clip-777-630-144-30-0)" font-size="12px"><text x="778.5" y="649.5">MiddleName: varchar(64)</text></g><path d="M 741 660 M 771 660 M 771 690 M 741 690" fill="none" stroke="rgb(0, 0, 0)" stroke-linecap="square" stroke-miterlimit="10" pointer-events="none"/><path d="M 771 660 M 921 660 M 921 690 M 771 690" fill="none" stroke="rgb(0, 0, 0)" stroke-linecap="square" stroke-miterlimit="10" pointer-events="none"/><g fill="rgb(0, 0, 0)" font-family="Helvetica" pointer-events="none" clip-path="url(#mx-clip-777-660-144-30-0)" font-size="12px"><text x="778.5" y="679.5">Birthday: date</text></g><path d="M 741 690 M 771 690 M 771 720 M 741 720" fill="none" stroke="rgb(0, 0, 0)" stroke-linecap="square" stroke-miterlimit="10" pointer-events="none"/><path d="M 771 690 M 921 690 M 921 720 M 771 720" fill="none" stroke="rgb(0, 0, 0)" stroke-linecap="square" stroke-miterlimit="10" pointer-events="none"/><g fill="rgb(0, 0, 0)" font-family="Helvetica" pointer-events="none" clip-path="url(#mx-clip-777-690-144-30-0)" font-size="12px"><text x="778.5" y="709.5">Gender: integer</text></g><path d="M 741 720 M 771 720 M 771 750 M 741 750" fill="none" stroke="rgb(0, 0, 0)" stroke-linecap="square" stroke-miterlimit="10" pointer-events="none"/><path d="M 771 720 M 921 720 M 921 750 M 771 750" fill="none" stroke="rgb(0, 0, 0)" stroke-linecap="square" stroke-miterlimit="10" pointer-events="none"/><g fill="rgb(0, 0, 0)" font-family="Helvetica" pointer-events="none" clip-path="url(#mx-clip-777-720-144-30-0)" font-size="12px"><text x="778.5" y="739.5">Password: varchar(128)</text></g><path d="M 741 750 M 771 750 M 771 780 M 741 780" fill="none" stroke="rgb(0, 0, 0)" stroke-linecap="square" stroke-miterlimit="10" pointer-events="none"/><path d="M 771 750 M 921 750 M 921 780 M 771 780" fill="none" stroke="rgb(0, 0, 0)" stroke-linecap="square" stroke-miterlimit="10" pointer-events="none"/><g fill="rgb(0, 0, 0)" font-family="Helvetica" pointer-events="none" clip-path="url(#mx-clip-777-750-144-30-0)" font-size="12px"><text x="778.5" y="769.5">Email: text</text></g><path d="M 741 780 M 771 780 M 771 810 M 741 810" fill="none" stroke="rgb(0, 0, 0)" stroke-linecap="square" stroke-miterlimit="10" pointer-events="none"/><path d="M 771 780 M 921 780 M 921 810 M 771 810" fill="none" stroke="rgb(0, 0, 0)" stroke-linecap="square" stroke-miterlimit="10" pointer-events="none"/><g fill="rgb(0, 0, 0)" font-family="Helvetica" pointer-events="none" clip-path="url(#mx-clip-777-780-144-30-0)" font-size="12px"><text x="778.5" y="799.5">Role: integer</text></g><path d="M 740 300 L 740 270 L 920 270 L 920 300" fill="rgb(255, 255, 255)" stroke="rgb(0, 0, 0)" stroke-miterlimit="10" pointer-events="none"/><path d="M 740 300 L 740 490 L 920 490 L 920 300" fill="none" stroke="rgb(0, 0, 0)" stroke-miterlimit="10" pointer-events="none"/><path d="M 740 300 L 920 300" fill="none" stroke="rgb(0, 0, 0)" stroke-miterlimit="10" pointer-events="none"/><path d="M 770 300 L 770 330 L 770 360 L 770 390 L 770 420 L 770 450 L 770 480" fill="none" stroke="rgb(0, 0, 0)" stroke-miterlimit="10" pointer-events="none"/><g fill="rgb(0, 0, 0)" font-family="Helvetica" font-weight="bold" pointer-events="none" text-anchor="middle" font-size="12px"><text x="829.5" y="289.5">Feedbacks</text></g><path d="M 740 300 M 920 300 M 920 330 L 740 330" fill="none" stroke="rgb(0, 0, 0)" stroke-linecap="square" stroke-miterlimit="10" pointer-events="none"/><path d="M 740 300 M 770 300 M 770 330 M 740 330" fill="none" stroke="rgb(0, 0, 0)" stroke-linecap="square" stroke-miterlimit="10" pointer-events="none"/><g fill="rgb(0, 0, 0)" font-family="Helvetica" font-weight="bold" pointer-events="none" clip-path="url(#mx-clip-740-300-30-30-0)" text-anchor="middle" font-size="12px"><text x="754.5" y="319.5">PK</text></g><path d="M 770 300 M 920 300 M 920 330 M 770 330" fill="none" stroke="rgb(0, 0, 0)" stroke-linecap="square" stroke-miterlimit="10" pointer-events="none"/><g fill="rgb(0, 0, 0)" font-family="Helvetica" font-weight="bold" text-decoration="underline" pointer-events="none" clip-path="url(#mx-clip-776-300-144-30-0)" font-size="12px"><text x="777.5" y="319.5">Id: uuid</text></g><path d="M 740 330 M 770 330 M 770 360 M 740 360" fill="none" stroke="rgb(0, 0, 0)" stroke-linecap="square" stroke-miterlimit="10" pointer-events="none"/><g fill="rgb(0, 0, 0)" font-family="Helvetica" pointer-events="none" clip-path="url(#mx-clip-740-330-30-30-0)" text-anchor="middle" font-size="12px"><text x="754.5" y="349.5">FK</text></g><path d="M 770 330 M 920 330 M 920 360 M 770 360" fill="none" stroke="rgb(0, 0, 0)" stroke-linecap="square" stroke-miterlimit="10" pointer-events="none"/><g fill="rgb(0, 0, 0)" font-family="Helvetica" pointer-events="none" clip-path="url(#mx-clip-776-330-144-30-0)" font-size="12px"><text x="777.5" y="349.5">ZoneId:  uuid</text></g><path d="M 740 360 M 770 360 M 770 390 M 740 390" fill="none" stroke="rgb(0, 0, 0)" stroke-linecap="square" stroke-miterlimit="10" pointer-events="none"/><g fill="rgb(0, 0, 0)" font-family="Helvetica" pointer-events="none" clip-path="url(#mx-clip-740-360-30-30-0)" text-anchor="middle" font-size="12px"><text x="754.5" y="379.5">FK</text></g><path d="M 770 360 M 920 360 M 920 390 M 770 390" fill="none" stroke="rgb(0, 0, 0)" stroke-linecap="square" stroke-miterlimit="10" pointer-events="none"/><g fill="rgb(0, 0, 0)" font-family="Helvetica" pointer-events="none" clip-path="url(#mx-clip-776-360-144-30-0)" font-size="12px"><text x="777.5" y="379.5">UserId: uuid</text></g><path d="M 740 390 M 770 390 M 770 420 M 740 420" fill="none" stroke="rgb(0, 0, 0)" stroke-linecap="square" stroke-miterlimit="10" pointer-events="none"/><path d="M 770 390 M 920 390 M 920 420 M 770 420" fill="none" stroke="rgb(0, 0, 0)" stroke-linecap="square" stroke-miterlimit="10" pointer-events="none"/><g fill="rgb(0, 0, 0)" font-family="Helvetica" pointer-events="none" clip-path="url(#mx-clip-776-390-144-30-0)" font-size="12px"><text x="777.5" y="409.5">Mark: integer</text></g><path d="M 740 420 M 770 420 M 770 450 M 740 450" fill="none" stroke="rgb(0, 0, 0)" stroke-linecap="square" stroke-miterlimit="10" pointer-events="none"/><path d="M 770 420 M 920 420 M 920 450 M 770 450" fill="none" stroke="rgb(0, 0, 0)" stroke-linecap="square" stroke-miterlimit="10" pointer-events="none"/><g fill="rgb(0, 0, 0)" font-family="Helvetica" pointer-events="none" clip-path="url(#mx-clip-776-420-144-30-0)" font-size="12px"><text x="777.5" y="439.5">CreationDay: DateTime</text></g><path d="M 740 450 M 770 450 M 770 480 M 740 480" fill="none" stroke="rgb(0, 0, 0)" stroke-linecap="square" stroke-miterlimit="10" pointer-events="none"/><path d="M 770 450 M 920 450 M 920 480 M 770 480" fill="none" stroke="rgb(0, 0, 0)" stroke-linecap="square" stroke-miterlimit="10" pointer-events="none"/><g fill="rgb(0, 0, 0)" font-family="Helvetica" pointer-events="none" clip-path="url(#mx-clip-776-450-144-30-0)" font-size="12px"><text x="777.5" y="469.5">Message: text</text></g><path d="M 460 620 L 460 590 L 640 590 L 640 620" fill="rgb(255, 255, 255)" stroke="rgb(0, 0, 0)" stroke-miterlimit="10" pointer-events="none"/><path d="M 460 620 L 460 900 L 640 900 L 640 620" fill="none" stroke="rgb(0, 0, 0)" stroke-miterlimit="10" pointer-events="none"/><path d="M 460 620 L 640 620" fill="none" stroke="rgb(0, 0, 0)" stroke-miterlimit="10" pointer-events="none"/><path d="M 490 620 L 490 650 L 490 680 L 490 710 L 490 740 L 490 770 L 490 800 L 490 830 L 490 860 L 490 890" fill="none" stroke="rgb(0, 0, 0)" stroke-miterlimit="10" pointer-events="none"/><g fill="rgb(0, 0, 0)" font-family="Helvetica" font-weight="bold" pointer-events="none" text-anchor="middle" font-size="12px"><text x="549.5" y="609.5">Bookings</text></g><path d="M 460 620 M 640 620 M 640 650 L 460 650" fill="none" stroke="rgb(0, 0, 0)" stroke-linecap="square" stroke-miterlimit="10" pointer-events="none"/><path d="M 460 620 M 490 620 M 490 650 M 460 650" fill="none" stroke="rgb(0, 0, 0)" stroke-linecap="square" stroke-miterlimit="10" pointer-events="none"/><g fill="rgb(0, 0, 0)" font-family="Helvetica" font-weight="bold" pointer-events="none" clip-path="url(#mx-clip-460-620-30-30-0)" text-anchor="middle" font-size="12px"><text x="474.5" y="639.5">PK</text></g><path d="M 490 620 M 640 620 M 640 650 M 490 650" fill="none" stroke="rgb(0, 0, 0)" stroke-linecap="square" stroke-miterlimit="10" pointer-events="none"/><g fill="rgb(0, 0, 0)" font-family="Helvetica" font-weight="bold" text-decoration="underline" pointer-events="none" clip-path="url(#mx-clip-496-620-144-30-0)" font-size="12px"><text x="497.5" y="639.5">Id: uuid</text></g><path d="M 460 650 M 490 650 M 490 680 M 460 680" fill="none" stroke="rgb(0, 0, 0)" stroke-linecap="square" stroke-miterlimit="10" pointer-events="none"/><g fill="rgb(0, 0, 0)" font-family="Helvetica" pointer-events="none" clip-path="url(#mx-clip-460-650-30-30-0)" text-anchor="middle" font-size="12px"><text x="474.5" y="669.5">FK</text></g><path d="M 490 650 M 640 650 M 640 680 M 490 680" fill="none" stroke="rgb(0, 0, 0)" stroke-linecap="square" stroke-miterlimit="10" pointer-events="none"/><g fill="rgb(0, 0, 0)" font-family="Helvetica" pointer-events="none" clip-path="url(#mx-clip-496-650-144-30-0)" font-size="12px"><text x="497.5" y="669.5">UserId: uuid</text></g><path d="M 460 680 M 490 680 M 490 710 M 460 710" fill="none" stroke="rgb(0, 0, 0)" stroke-linecap="square" stroke-miterlimit="10" pointer-events="none"/><g fill="rgb(0, 0, 0)" font-family="Helvetica" pointer-events="none" clip-path="url(#mx-clip-460-680-30-30-0)" text-anchor="middle" font-size="12px"><text x="474.5" y="699.5">FK</text></g><path d="M 490 680 M 640 680 M 640 710 M 490 710" fill="none" stroke="rgb(0, 0, 0)" stroke-linecap="square" stroke-miterlimit="10" pointer-events="none"/><g fill="rgb(0, 0, 0)" font-family="Helvetica" pointer-events="none" clip-path="url(#mx-clip-496-680-144-30-0)" font-size="12px"><text x="497.5" y="699.5">ZoneId: uuid</text></g><path d="M 460 710 M 490 710 M 490 740 M 460 740" fill="none" stroke="rgb(0, 0, 0)" stroke-linecap="square" stroke-miterlimit="10" pointer-events="none"/><g fill="rgb(0, 0, 0)" font-family="Helvetica" pointer-events="none" clip-path="url(#mx-clip-460-710-30-30-0)" text-anchor="middle" font-size="12px"><text x="474.5" y="729.5">FK</text></g><path d="M 490 710 M 640 710 M 640 740 M 490 740" fill="none" stroke="rgb(0, 0, 0)" stroke-linecap="square" stroke-miterlimit="10" pointer-events="none"/><g fill="rgb(0, 0, 0)" font-family="Helvetica" pointer-events="none" clip-path="url(#mx-clip-496-710-144-30-0)" font-size="12px"><text x="497.5" y="729.5">PackageId: uuid</text></g><path d="M 460 740 M 490 740 M 490 770 M 460 770" fill="none" stroke="rgb(0, 0, 0)" stroke-linecap="square" stroke-miterlimit="10" pointer-events="none"/><path d="M 490 740 M 640 740 M 640 770 M 490 770" fill="none" stroke="rgb(0, 0, 0)" stroke-linecap="square" stroke-miterlimit="10" pointer-events="none"/><g fill="rgb(0, 0, 0)" font-family="Helvetica" pointer-events="none" clip-path="url(#mx-clip-496-740-144-30-0)" font-size="12px"><text x="497.5" y="759.5">AmountOfPeople: integer</text></g><path d="M 460 770 M 490 770 M 490 800 M 460 800" fill="none" stroke="rgb(0, 0, 0)" stroke-linecap="square" stroke-miterlimit="10" pointer-events="none"/><path d="M 490 770 M 640 770 M 640 800 M 490 800" fill="none" stroke="rgb(0, 0, 0)" stroke-linecap="square" stroke-miterlimit="10" pointer-events="none"/><g fill="rgb(0, 0, 0)" font-family="Helvetica" pointer-events="none" clip-path="url(#mx-clip-496-770-144-30-0)" font-size="12px"><text x="497.5" y="789.5">Date: date</text></g><path d="M 460 800 M 490 800 M 490 830 M 460 830" fill="none" stroke="rgb(0, 0, 0)" stroke-linecap="square" stroke-miterlimit="10" pointer-events="none"/><path d="M 490 800 M 640 800 M 640 830 M 490 830" fill="none" stroke="rgb(0, 0, 0)" stroke-linecap="square" stroke-miterlimit="10" pointer-events="none"/><g fill="rgb(0, 0, 0)" font-family="Helvetica" pointer-events="none" clip-path="url(#mx-clip-496-800-144-30-0)" font-size="12px"><text x="497.5" y="819.5">StartTime: time</text></g><path d="M 460 830 M 490 830 M 490 860 M 460 860" fill="none" stroke="rgb(0, 0, 0)" stroke-linecap="square" stroke-miterlimit="10" pointer-events="none"/><path d="M 490 830 M 640 830 M 640 860 M 490 860" fill="none" stroke="rgb(0, 0, 0)" stroke-linecap="square" stroke-miterlimit="10" pointer-events="none"/><g fill="rgb(0, 0, 0)" font-family="Helvetica" pointer-events="none" clip-path="url(#mx-clip-496-830-144-30-0)" font-size="12px"><text x="497.5" y="849.5">EndTime: time</text></g><path d="M 460 860 M 490 860 M 490 890 M 460 890" fill="none" stroke="rgb(0, 0, 0)" stroke-linecap="square" stroke-miterlimit="10" pointer-events="none"/><path d="M 490 860 M 640 860 M 640 890 M 490 890" fill="none" stroke="rgb(0, 0, 0)" stroke-linecap="square" stroke-miterlimit="10" pointer-events="none"/><g fill="rgb(0, 0, 0)" font-family="Helvetica" pointer-events="none" clip-path="url(#mx-clip-496-860-144-30-0)" font-size="12px"><text x="497.5" y="879.5">Status: integer</text></g><path d="M 0 380 L 0 350 L 180 350 L 180 380" fill="rgb(255, 255, 255)" stroke="rgb(0, 0, 0)" stroke-miterlimit="10" pointer-events="none"/><path d="M 0 380 L 0 540 L 180 540 L 180 380" fill="none" stroke="rgb(0, 0, 0)" stroke-miterlimit="10" pointer-events="none"/><path d="M 0 380 L 180 380" fill="none" stroke="rgb(0, 0, 0)" stroke-miterlimit="10" pointer-events="none"/><path d="M 30 380 L 30 410 L 30 440 L 30 470 L 30 500 L 30 530" fill="none" stroke="rgb(0, 0, 0)" stroke-miterlimit="10" pointer-events="none"/><g fill="rgb(0, 0, 0)" font-family="Helvetica" font-weight="bold" pointer-events="none" text-anchor="middle" font-size="12px"><text x="89.5" y="369.5">Dishes</text></g><path d="M 0 380 M 180 380 M 180 410 L 0 410" fill="none" stroke="rgb(0, 0, 0)" stroke-linecap="square" stroke-miterlimit="10" pointer-events="none"/><path d="M 0 380 M 30 380 M 30 410 M 0 410" fill="none" stroke="rgb(0, 0, 0)" stroke-linecap="square" stroke-miterlimit="10" pointer-events="none"/><g fill="rgb(0, 0, 0)" font-family="Helvetica" font-weight="bold" pointer-events="none" clip-path="url(#mx-clip-0-380-30-30-0)" text-anchor="middle" font-size="12px"><text x="14.5" y="399.5">PK</text></g><path d="M 30 380 M 180 380 M 180 410 M 30 410" fill="none" stroke="rgb(0, 0, 0)" stroke-linecap="square" stroke-miterlimit="10" pointer-events="none"/><g fill="rgb(0, 0, 0)" font-family="Helvetica" font-weight="bold" text-decoration="underline" pointer-events="none" clip-path="url(#mx-clip-36-380-144-30-0)" font-size="12px"><text x="37.5" y="399.5">Id: uuid</text></g><path d="M 0 410 M 30 410 M 30 440 M 0 440" fill="none" stroke="rgb(0, 0, 0)" stroke-linecap="square" stroke-miterlimit="10" pointer-events="none"/><path d="M 30 410 M 180 410 M 180 440 M 30 440" fill="none" stroke="rgb(0, 0, 0)" stroke-linecap="square" stroke-miterlimit="10" pointer-events="none"/><g fill="rgb(0, 0, 0)" font-family="Helvetica" pointer-events="none" clip-path="url(#mx-clip-36-410-144-30-0)" font-size="12px"><text x="37.5" y="429.5">Name: varchar(255)</text></g><path d="M 0 440 M 30 440 M 30 470 M 0 470" fill="none" stroke="rgb(0, 0, 0)" stroke-linecap="square" stroke-miterlimit="10" pointer-events="none"/><path d="M 30 440 M 180 440 M 180 470 M 30 470" fill="none" stroke="rgb(0, 0, 0)" stroke-linecap="square" stroke-miterlimit="10" pointer-events="none"/><g fill="rgb(0, 0, 0)" font-family="Helvetica" pointer-events="none" clip-path="url(#mx-clip-36-440-144-30-0)" font-size="12px"><text x="37.5" y="459.5">Type: varchar(255)</text></g><path d="M 0 470 M 30 470 M 30 500 M 0 500" fill="none" stroke="rgb(0, 0, 0)" stroke-linecap="square" stroke-miterlimit="10" pointer-events="none"/><path d="M 30 470 M 180 470 M 180 500 M 30 500" fill="none" stroke="rgb(0, 0, 0)" stroke-linecap="square" stroke-miterlimit="10" pointer-events="none"/><g fill="rgb(0, 0, 0)" font-family="Helvetica" pointer-events="none" clip-path="url(#mx-clip-36-470-144-30-0)" font-size="12px"><text x="37.5" y="489.5">Decription: text</text></g><path d="M 0 500 M 30 500 M 30 530 M 0 530" fill="none" stroke="rgb(0, 0, 0)" stroke-linecap="square" stroke-miterlimit="10" pointer-events="none"/><path d="M 30 500 M 180 500 M 180 530 M 30 530" fill="none" stroke="rgb(0, 0, 0)" stroke-linecap="square" stroke-miterlimit="10" pointer-events="none"/><g fill="rgb(0, 0, 0)" font-family="Helvetica" pointer-events="none" clip-path="url(#mx-clip-36-500-144-30-0)" font-size="12px"><text x="37.5" y="519.5">Price: numeric</text></g><path d="M 460 30 L 460 0 L 640 0 L 640 30" fill="rgb(255, 255, 255)" stroke="rgb(0, 0, 0)" stroke-miterlimit="10" pointer-events="none"/><path d="M 460 30 L 460 250 L 640 250 L 640 30" fill="none" stroke="rgb(0, 0, 0)" stroke-miterlimit="10" pointer-events="none"/><path d="M 460 30 L 640 30" fill="none" stroke="rgb(0, 0, 0)" stroke-miterlimit="10" pointer-events="none"/><path d="M 490 30 L 490 60 L 490 90 L 490 120 L 490 150 L 490 180 L 490 210 L 490 240" fill="none" stroke="rgb(0, 0, 0)" stroke-miterlimit="10" pointer-events="none"/><g fill="rgb(0, 0, 0)" font-family="Helvetica" font-weight="bold" pointer-events="none" text-anchor="middle" font-size="12px"><text x="549.5" y="19.5">Inventories</text></g><path d="M 460 30 M 640 30 M 640 60 L 460 60" fill="none" stroke="rgb(0, 0, 0)" stroke-linecap="square" stroke-miterlimit="10" pointer-events="none"/><path d="M 460 30 M 490 30 M 490 60 M 460 60" fill="none" stroke="rgb(0, 0, 0)" stroke-linecap="square" stroke-miterlimit="10" pointer-events="none"/><g fill="rgb(0, 0, 0)" font-family="Helvetica" font-weight="bold" pointer-events="none" clip-path="url(#mx-clip-460-30-30-30-0)" text-anchor="middle" font-size="12px"><text x="474.5" y="49.5">PK</text></g><path d="M 490 30 M 640 30 M 640 60 M 490 60" fill="none" stroke="rgb(0, 0, 0)" stroke-linecap="square" stroke-miterlimit="10" pointer-events="none"/><g fill="rgb(0, 0, 0)" font-family="Helvetica" font-weight="bold" text-decoration="underline" pointer-events="none" clip-path="url(#mx-clip-496-30-144-30-0)" font-size="12px"><text x="497.5" y="49.5">Id: uuid</text></g><path d="M 460 60 M 490 60 M 490 90 M 460 90" fill="none" stroke="rgb(0, 0, 0)" stroke-linecap="square" stroke-miterlimit="10" pointer-events="none"/><g fill="rgb(0, 0, 0)" font-family="Helvetica" pointer-events="none" clip-path="url(#mx-clip-460-60-30-30-0)" text-anchor="middle" font-size="12px"><text x="474.5" y="79.5">FK</text></g><path d="M 490 60 M 640 60 M 640 90 M 490 90" fill="none" stroke="rgb(0, 0, 0)" stroke-linecap="square" stroke-miterlimit="10" pointer-events="none"/><g fill="rgb(0, 0, 0)" font-family="Helvetica" pointer-events="none" clip-path="url(#mx-clip-496-60-144-30-0)" font-size="12px"><text x="497.5" y="79.5">ZoneId: uuid</text></g><path d="M 460 90 M 490 90 M 490 120 M 460 120" fill="none" stroke="rgb(0, 0, 0)" stroke-linecap="square" stroke-miterlimit="10" pointer-events="none"/><path d="M 490 90 M 640 90 M 640 120 M 490 120" fill="none" stroke="rgb(0, 0, 0)" stroke-linecap="square" stroke-miterlimit="10" pointer-events="none"/><g fill="rgb(0, 0, 0)" font-family="Helvetica" pointer-events="none" clip-path="url(#mx-clip-496-90-144-30-0)" font-size="12px"><text x="497.5" y="109.5">Name: varchar(64)</text></g><path d="M 460 120 M 490 120 M 490 150 M 460 150" fill="none" stroke="rgb(0, 0, 0)" stroke-linecap="square" stroke-miterlimit="10" pointer-events="none"/><path d="M 490 120 M 640 120 M 640 150 M 490 150" fill="none" stroke="rgb(0, 0, 0)" stroke-linecap="square" stroke-miterlimit="10" pointer-events="none"/><g fill="rgb(0, 0, 0)" font-family="Helvetica" pointer-events="none" clip-path="url(#mx-clip-496-120-144-30-0)" font-size="12px"><text x="497.5" y="139.5">Type: varchar(64)</text></g><path d="M 460 150 M 490 150 M 490 180 M 460 180" fill="none" stroke="rgb(0, 0, 0)" stroke-linecap="square" stroke-miterlimit="10" pointer-events="none"/><path d="M 490 150 M 640 150 M 640 180 M 490 180" fill="none" stroke="rgb(0, 0, 0)" stroke-linecap="square" stroke-miterlimit="10" pointer-events="none"/><g fill="rgb(0, 0, 0)" font-family="Helvetica" pointer-events="none" clip-path="url(#mx-clip-496-150-144-30-0)" font-size="12px"><text x="497.5" y="169.5">YearOfProduction: date</text></g><path d="M 460 180 M 490 180 M 490 210 M 460 210" fill="none" stroke="rgb(0, 0, 0)" stroke-linecap="square" stroke-miterlimit="10" pointer-events="none"/><path d="M 490 180 M 640 180 M 640 210 M 490 210" fill="none" stroke="rgb(0, 0, 0)" stroke-linecap="square" stroke-miterlimit="10" pointer-events="none"/><g fill="rgb(0, 0, 0)" font-family="Helvetica" pointer-events="none" clip-path="url(#mx-clip-496-180-144-30-0)" font-size="12px"><text x="497.5" y="199.5">IsWrittenOff: bool</text></g><path d="M 460 210 M 490 210 M 490 240 M 460 240" fill="none" stroke="rgb(0, 0, 0)" stroke-linecap="square" stroke-miterlimit="10" pointer-events="none"/><path d="M 490 210 M 640 210 M 640 240 M 490 240" fill="none" stroke="rgb(0, 0, 0)" stroke-linecap="square" stroke-miterlimit="10" pointer-events="none"/><g fill="rgb(0, 0, 0)" font-family="Helvetica" pointer-events="none" clip-path="url(#mx-clip-496-210-144-30-0)" font-size="12px"><text x="497.5" y="229.5">Decription: text</text></g><path d="M 640 315 L 670 315 L 670 345 L 740 345" fill="none" stroke="rgb(0, 0, 0)" stroke-miterlimit="10" pointer-events="none"/><path d="M 740 341 L 732 345 L 740 349" fill="none" stroke="rgb(0, 0, 0)" stroke-miterlimit="10" pointer-events="none"/><path d="M 640 315 L 670 315 L 670 530 L 440 530 L 440 695 L 460 695" fill="none" stroke="rgb(0, 0, 0)" stroke-miterlimit="10" pointer-events="none"/><path d="M 460 691 L 452 695 L 460 699" fill="none" stroke="rgb(0, 0, 0)" stroke-miterlimit="10" pointer-events="none"/><path d="M 741 555 L 450 555 L 450 665 L 460 665" fill="none" stroke="rgb(0, 0, 0)" stroke-miterlimit="10" pointer-events="none"/><path d="M 460 661 L 452 665 L 460 669" fill="none" stroke="rgb(0, 0, 0)" stroke-miterlimit="10" pointer-events="none"/><path d="M 741 555 L 710 555 L 710 375 L 740 375" fill="none" stroke="rgb(0, 0, 0)" stroke-miterlimit="10" pointer-events="none"/><path d="M 740 371 L 732 375 L 740 379" fill="none" stroke="rgb(0, 0, 0)" stroke-miterlimit="10" pointer-events="none"/><path d="M 0 620 L 0 590 L 180 590 L 180 620" fill="rgb(255, 255, 255)" stroke="rgb(0, 0, 0)" stroke-miterlimit="10" pointer-events="none"/><path d="M 0 620 L 0 720 L 180 720 L 180 620" fill="none" stroke="rgb(0, 0, 0)" stroke-miterlimit="10" pointer-events="none"/><path d="M 0 620 L 180 620" fill="none" stroke="rgb(0, 0, 0)" stroke-miterlimit="10" pointer-events="none"/><path d="M 30 620 L 30 650 L 30 680 L 30 710" fill="none" stroke="rgb(0, 0, 0)" stroke-miterlimit="10" pointer-events="none"/><g fill="rgb(0, 0, 0)" font-family="Helvetica" font-weight="bold" pointer-events="none" text-anchor="middle" font-size="12px"><text x="89.5" y="609.5">PackageDishes</text></g><path d="M 0 620 M 180 620 M 180 650 L 0 650" fill="none" stroke="rgb(0, 0, 0)" stroke-linecap="square" stroke-miterlimit="10" pointer-events="none"/><path d="M 0 620 M 30 620 M 30 650 M 0 650" fill="none" stroke="rgb(0, 0, 0)" stroke-linecap="square" stroke-miterlimit="10" pointer-events="none"/><g fill="rgb(0, 0, 0)" font-family="Helvetica" font-weight="bold" pointer-events="none" clip-path="url(#mx-clip-0-620-30-30-0)" text-anchor="middle" font-size="12px"><text x="14.5" y="639.5">PK</text></g><path d="M 30 620 M 180 620 M 180 650 M 30 650" fill="none" stroke="rgb(0, 0, 0)" stroke-linecap="square" stroke-miterlimit="10" pointer-events="none"/><g fill="rgb(0, 0, 0)" font-family="Helvetica" font-weight="bold" text-decoration="underline" pointer-events="none" clip-path="url(#mx-clip-36-620-144-30-0)" font-size="12px"><text x="37.5" y="639.5">Id: uuid</text></g><path d="M 0 650 M 30 650 M 30 680 M 0 680" fill="none" stroke="rgb(0, 0, 0)" stroke-linecap="square" stroke-miterlimit="10" pointer-events="none"/><g fill="rgb(0, 0, 0)" font-family="Helvetica" pointer-events="none" clip-path="url(#mx-clip-0-650-30-30-0)" text-anchor="middle" font-size="12px"><text x="14.5" y="669.5">FK</text></g><path d="M 30 650 M 180 650 M 180 680 M 30 680" fill="none" stroke="rgb(0, 0, 0)" stroke-linecap="square" stroke-miterlimit="10" pointer-events="none"/><g fill="rgb(0, 0, 0)" font-family="Helvetica" pointer-events="none" clip-path="url(#mx-clip-36-650-144-30-0)" font-size="12px"><text x="37.5" y="669.5">DishId: uuid</text></g><path d="M 0 680 M 30 680 M 30 710 M 0 710" fill="none" stroke="rgb(0, 0, 0)" stroke-linecap="square" stroke-miterlimit="10" pointer-events="none"/><g fill="rgb(0, 0, 0)" font-family="Helvetica" pointer-events="none" clip-path="url(#mx-clip-0-680-30-30-0)" text-anchor="middle" font-size="12px"><text x="14.5" y="699.5">FK</text></g><path d="M 30 680 M 180 680 M 180 710 M 30 710" fill="none" stroke="rgb(0, 0, 0)" stroke-linecap="square" stroke-miterlimit="10" pointer-events="none"/><g fill="rgb(0, 0, 0)" font-family="Helvetica" pointer-events="none" clip-path="url(#mx-clip-36-680-144-30-0)" font-size="12px"><text x="37.5" y="699.5">PackageId: uuid</text></g><path d="M 640 315 L 670 315 L 670 45 L 640 45" fill="none" stroke="rgb(0, 0, 0)" stroke-miterlimit="10" pointer-events="none"/><path d="M 640 49 L 648 45 L 640 41" fill="none" stroke="rgb(0, 0, 0)" stroke-miterlimit="10" pointer-events="none"/><path d="M 230 620 L 230 590 L 410 590 L 410 620" fill="rgb(255, 255, 255)" stroke="rgb(0, 0, 0)" stroke-miterlimit="10" pointer-events="none"/><path d="M 230 620 L 230 810 L 410 810 L 410 620" fill="none" stroke="rgb(0, 0, 0)" stroke-miterlimit="10" pointer-events="none"/><path d="M 230 620 L 410 620" fill="none" stroke="rgb(0, 0, 0)" stroke-miterlimit="10" pointer-events="none"/><path d="M 260 620 L 260 650 L 260 680 L 260 710 L 260 740 L 260 770 L 260 800" fill="none" stroke="rgb(0, 0, 0)" stroke-miterlimit="10" pointer-events="none"/><g fill="rgb(0, 0, 0)" font-family="Helvetica" font-weight="bold" pointer-events="none" text-anchor="middle" font-size="12px"><text x="319.5" y="609.5">Packages</text></g><path d="M 230 620 M 410 620 M 410 650 L 230 650" fill="none" stroke="rgb(0, 0, 0)" stroke-linecap="square" stroke-miterlimit="10" pointer-events="none"/><path d="M 230 620 M 260 620 M 260 650 M 230 650" fill="none" stroke="rgb(0, 0, 0)" stroke-linecap="square" stroke-miterlimit="10" pointer-events="none"/><g fill="rgb(0, 0, 0)" font-family="Helvetica" font-weight="bold" pointer-events="none" clip-path="url(#mx-clip-230-620-30-30-0)" text-anchor="middle" font-size="12px"><text x="244.5" y="639.5">PK</text></g><path d="M 260 620 M 410 620 M 410 650 M 260 650" fill="none" stroke="rgb(0, 0, 0)" stroke-linecap="square" stroke-miterlimit="10" pointer-events="none"/><g fill="rgb(0, 0, 0)" font-family="Helvetica" font-weight="bold" text-decoration="underline" pointer-events="none" clip-path="url(#mx-clip-266-620-144-30-0)" font-size="12px"><text x="267.5" y="639.5">Id: uuid</text></g><path d="M 230 650 M 260 650 M 260 680 M 230 680" fill="none" stroke="rgb(0, 0, 0)" stroke-linecap="square" stroke-miterlimit="10" pointer-events="none"/><path d="M 260 650 M 410 650 M 410 680 M 260 680" fill="none" stroke="rgb(0, 0, 0)" stroke-linecap="square" stroke-miterlimit="10" pointer-events="none"/><g fill="rgb(0, 0, 0)" font-family="Helvetica" pointer-events="none" clip-path="url(#mx-clip-266-650-144-30-0)" font-size="12px"><text x="267.5" y="669.5">Name: varchar(64)</text></g><path d="M 230 680 M 260 680 M 260 710 M 230 710" fill="none" stroke="rgb(0, 0, 0)" stroke-linecap="square" stroke-miterlimit="10" pointer-events="none"/><path d="M 260 680 M 410 680 M 410 710 M 260 710" fill="none" stroke="rgb(0, 0, 0)" stroke-linecap="square" stroke-miterlimit="10" pointer-events="none"/><g fill="rgb(0, 0, 0)" font-family="Helvetica" pointer-events="none" clip-path="url(#mx-clip-266-680-144-30-0)" font-size="12px"><text x="267.5" y="699.5">Type: integer</text></g><path d="M 230 710 M 260 710 M 260 740 M 230 740" fill="none" stroke="rgb(0, 0, 0)" stroke-linecap="square" stroke-miterlimit="10" pointer-events="none"/><path d="M 260 710 M 410 710 M 410 740 M 260 740" fill="none" stroke="rgb(0, 0, 0)" stroke-linecap="square" stroke-miterlimit="10" pointer-events="none"/><g fill="rgb(0, 0, 0)" font-family="Helvetica" pointer-events="none" clip-path="url(#mx-clip-266-710-144-30-0)" font-size="12px"><text x="267.5" y="729.5">RetalTime: imteger</text></g><path d="M 230 740 M 260 740 M 260 770 M 230 770" fill="none" stroke="rgb(0, 0, 0)" stroke-linecap="square" stroke-miterlimit="10" pointer-events="none"/><path d="M 260 740 M 410 740 M 410 770 M 260 770" fill="none" stroke="rgb(0, 0, 0)" stroke-linecap="square" stroke-miterlimit="10" pointer-events="none"/><g fill="rgb(0, 0, 0)" font-family="Helvetica" pointer-events="none" clip-path="url(#mx-clip-266-740-144-30-0)" font-size="12px"><text x="267.5" y="759.5">Price: numeric</text></g><path d="M 230 770 M 260 770 M 260 800 M 230 800" fill="none" stroke="rgb(0, 0, 0)" stroke-linecap="square" stroke-miterlimit="10" pointer-events="none"/><path d="M 260 770 M 410 770 M 410 800 M 260 800" fill="none" stroke="rgb(0, 0, 0)" stroke-linecap="square" stroke-miterlimit="10" pointer-events="none"/><g fill="rgb(0, 0, 0)" font-family="Helvetica" pointer-events="none" clip-path="url(#mx-clip-266-770-144-30-0)" font-size="12px"><text x="267.5" y="789.5">Decription: text</text></g><path d="M 410 635 L 430 635 L 430 725 L 460 725" fill="none" stroke="rgb(0, 0, 0)" stroke-miterlimit="10" pointer-events="none"/><path d="M 460 721 L 452 725 L 460 729" fill="none" stroke="rgb(0, 0, 0)" stroke-miterlimit="10" pointer-events="none"/><path d="M 180 395 L 210 395 L 210 665 L 180 665" fill="none" stroke="rgb(0, 0, 0)" stroke-miterlimit="10" pointer-events="none"/><path d="M 180 669 L 188 665 L 180 661" fill="none" stroke="rgb(0, 0, 0)" stroke-miterlimit="10" pointer-events="none"/><path d="M 430 655 L 430 830 L 210 830 L 210 695 L 180 695" fill="none" stroke="rgb(0, 0, 0)" stroke-miterlimit="10" pointer-events="none"/><path d="M 180 699 L 188 695 L 180 691" fill="none" stroke="rgb(0, 0, 0)" stroke-miterlimit="10" pointer-events="none"/><path d="M 240 380 L 240 350 L 420 350 L 420 380" fill="rgb(255, 255, 255)" stroke="rgb(0, 0, 0)" stroke-miterlimit="10" pointer-events="none"/><path d="M 240 380 L 240 480 L 420 480 L 420 380" fill="none" stroke="rgb(0, 0, 0)" stroke-miterlimit="10" pointer-events="none"/><path d="M 240 380 L 420 380" fill="none" stroke="rgb(0, 0, 0)" stroke-miterlimit="10" pointer-events="none"/><path d="M 270 380 L 270 410 L 270 440 L 270 470" fill="none" stroke="rgb(0, 0, 0)" stroke-miterlimit="10" pointer-events="none"/><g fill="rgb(0, 0, 0)" font-family="Helvetica" font-weight="bold" pointer-events="none" text-anchor="middle" font-size="12px"><text x="329.5" y="369.5">ZonePackages</text></g><path d="M 240 380 M 420 380 M 420 410 L 240 410" fill="none" stroke="rgb(0, 0, 0)" stroke-linecap="square" stroke-miterlimit="10" pointer-events="none"/><path d="M 240 380 M 270 380 M 270 410 M 240 410" fill="none" stroke="rgb(0, 0, 0)" stroke-linecap="square" stroke-miterlimit="10" pointer-events="none"/><g fill="rgb(0, 0, 0)" font-family="Helvetica" font-weight="bold" pointer-events="none" clip-path="url(#mx-clip-240-380-30-30-0)" text-anchor="middle" font-size="12px"><text x="254.5" y="399.5">PK</text></g><path d="M 270 380 M 420 380 M 420 410 M 270 410" fill="none" stroke="rgb(0, 0, 0)" stroke-linecap="square" stroke-miterlimit="10" pointer-events="none"/><g fill="rgb(0, 0, 0)" font-family="Helvetica" font-weight="bold" text-decoration="underline" pointer-events="none" clip-path="url(#mx-clip-276-380-144-30-0)" font-size="12px"><text x="277.5" y="399.5">Id: uuid</text></g><path d="M 240 410 M 270 410 M 270 440 M 240 440" fill="none" stroke="rgb(0, 0, 0)" stroke-linecap="square" stroke-miterlimit="10" pointer-events="none"/><g fill="rgb(0, 0, 0)" font-family="Helvetica" pointer-events="none" clip-path="url(#mx-clip-240-410-30-30-0)" text-anchor="middle" font-size="12px"><text x="254.5" y="429.5">FK</text></g><path d="M 270 410 M 420 410 M 420 440 M 270 440" fill="none" stroke="rgb(0, 0, 0)" stroke-linecap="square" stroke-miterlimit="10" pointer-events="none"/><g fill="rgb(0, 0, 0)" font-family="Helvetica" pointer-events="none" clip-path="url(#mx-clip-276-410-144-30-0)" font-size="12px"><text x="277.5" y="429.5">ZoneId: uuid</text></g><path d="M 240 440 M 270 440 M 270 470 M 240 470" fill="none" stroke="rgb(0, 0, 0)" stroke-linecap="square" stroke-miterlimit="10" pointer-events="none"/><g fill="rgb(0, 0, 0)" font-family="Helvetica" pointer-events="none" clip-path="url(#mx-clip-240-440-30-30-0)" text-anchor="middle" font-size="12px"><text x="254.5" y="459.5">FK</text></g><path d="M 270 440 M 420 440 M 420 470 M 270 470" fill="none" stroke="rgb(0, 0, 0)" stroke-linecap="square" stroke-miterlimit="10" pointer-events="none"/><g fill="rgb(0, 0, 0)" font-family="Helvetica" pointer-events="none" clip-path="url(#mx-clip-276-440-144-30-0)" font-size="12px"><text x="277.5" y="459.5">PackageId: uuid</text></g><path d="M 640 315 L 670 315 L 670 260 L 450 260 L 450 425 L 420 425" fill="none" stroke="rgb(0, 0, 0)" stroke-miterlimit="10" pointer-events="none"/><path d="M 420 429 L 428 425 L 420 421" fill="none" stroke="rgb(0, 0, 0)" stroke-miterlimit="10" pointer-events="none"/><path d="M 410 635 L 430 635 L 430 455 L 420 455" fill="none" stroke="rgb(0, 0, 0)" stroke-miterlimit="10" pointer-events="none"/><path d="M 420 459 L 428 455 L 420 451" fill="none" stroke="rgb(0, 0, 0)" stroke-miterlimit="10" pointer-events="none"/></g></svg>